<svg xmlns="http://www.w3.org/2000/svg" width="1200" height="630" viewBox="0 0 1200 630" fill="none">
  <rect width="1200" height="630" fill="#F8FAFC" />
  <rect x="60" y="60" width="1080" height="510" rx="32" fill="#E5E7EB" />
  <g transform="translate(110 140)">
    <circle cx="120" cy="120" r="80" stroke="#F97316" stroke-width="14" />
    <path d="M86 186V54h52c22 0 40 18 40 40 0 24-18 42-40 42H102v30H86zm20-95h30c10 0 18-8 18-18 0-10-8-18-18-18h-30v36z" fill="#F97316" />
  </g>
  <text x="320" y="240" font-family="Oswald, Arial, sans-serif" font-size="64" font-weight="600" letter-spacing="6" fill="#0F172A">
    PRECISION CUT
  </text>
  <text x="320" y="300" font-family="Inter, Arial, sans-serif" font-size="26" font-weight="500" letter-spacing="4" fill="#0F172A" fill-opacity="0.7">
    CONCRETE REMOVAL LLC
  </text>
  <text x="320" y="380" font-family="Inter, Arial, sans-serif" font-size="24" font-weight="500" fill="#F97316">
    Concrete cutting - Slab removal - Core drilling - Haul-off
  </text>
  <rect x="320" y="400" width="320" height="6" fill="#F97316" />
</svg>



